<?xml version="1.0"?>
<svg xmlns="http://www.w3.org/2000/svg" height="512px" viewBox="0 0 511 511.93448" width="512px" class=""><g><g><path d="m498.832031 73.960938-24.148437 24.234374s-6.058594 24.234376-48.296875 72.703126c-22.667969 25.675781-46.949219 49.875-72.707031 72.449218 0 0 12.121093 48.382813-42.324219 102.824219l-141.910157 141.910156c-17.167968 17.371094-44.160156 20.328125-64.679687 7.082031-17.109375-11.757812-33.003906-25.191406-47.445313-40.105468-14.914062-14.441406-28.351562-30.335938-40.109374-47.445313-13.242188-20.519531-10.285157-47.515625 7.085937-64.683593l141.90625-141.910157c54.445313-54.441406 102.828125-42.324219 102.828125-42.324219 22.574219-25.753906 46.773438-50.039062 72.449219-72.703124 48.46875-42.238282 72.703125-48.296876 72.703125-48.296876l24.234375-24.152343c3.183593-3.234375 7.535156-5.054688 12.074219-5.054688 4.539062 0 8.890624 1.820313 12.074218 5.054688l36.265625 36.269531c3.234375 3.183594 5.058594 7.535156 5.058594 12.074219 0 4.539062-1.824219 8.886719-5.058594 12.074219zm0 0" fill="#4c8056" data-original="#4C8056" class="" style="fill:#4C8056"/><path d="m353.699219 243.351562s12.097656 48.382813-42.335938 102.820313l-141.9375 141.9375c-17.167969 17.359375-44.152343 20.300781-64.65625 7.046875-17.109375-11.753906-33-25.195312-47.429687-40.117188-14.921875-14.433593-28.363282-30.320312-40.121094-47.429687-13.25-20.503906-10.308594-47.492187 7.050781-64.65625l141.933594-141.9375c54.433594-54.433594 102.820313-42.339844 102.820313-42.339844zm0 0" fill="#549414" data-original="#8C5B13" class="" style="fill:#78C2AD" data-old_color="#549414"/><path d="m340.164062 229.816406s8.519532 44.808594-45.910156 99.242188l-141.941406 141.941406c-15.609375 17.105469-40.851562 21.410156-61.25 10.449219-15.359375-10.015625-29.535156-21.738281-42.257812-34.945313-13.207032-12.71875-24.929688-26.894531-34.945313-42.253906-10.957031-20.402344-6.652344-45.640625 10.453125-61.25l141.9375-141.941406c54.433594-54.433594 99.242188-45.90625 99.242188-45.90625zm0 0" fill="#60a917" data-original="#C27E1B" class="" data-old_color="#60a917" style="fill:#78C2AD"/><path d="m498.832031 73.960938-24.148437 24.234374-60.5-60.5 24.234375-24.152343c3.96875-4.046875 9.714843-5.8125 15.273437-4.691407 3.355469.65625 6.445313 2.289063 8.875 4.691407l36.265625 36.269531c3.234375 3.183594 5.058594 7.535156 5.058594 12.074219 0 4.539062-1.824219 8.886719-5.058594 12.074219zm0 0" fill="#fdd834" data-original="#FDD834" class=""/><path d="m481.765625 61.074219-22.101563 22.101562-45.480468-45.480469 24.234375-24.152343c3.96875-4.046875 9.714843-5.8125 15.273437-4.691407l28.074219 28.074219c3.234375 3.183594 5.058594 7.535157 5.058594 12.074219s-1.824219 8.890625-5.058594 12.074219zm0 0" fill="#ffeb3a" data-original="#FFEB3A" class="" style="fill:#FFCE67" data-old_color="#ffeb3a"/><path d="m322.707031 333.714844-142.679687 143.785156s-28.246094-12.03125-68.351563-52.820312c-1.535156-1.449219-3.070312-3.070313-4.609375-4.691407-6.058594-6.402343-12.371094-13.398437-18.855468-21.078125-2.335938-2.90625-2.609376-6.960937-.683594-10.15625.351562-.519531.75-1.003906 1.195312-1.449218l131.328125-131.328126c.875-.820312 1.886719-1.480468 2.984375-1.964843 2.773438-.957031 5.84375-.476563 8.191406 1.28125.253907.09375.464844.277343.597657.511719l.085937.085937c.277344.203125.535156.433594.769532.683594 7.421874 8.703125 14.589843 16.554687 21.417968 23.550781 1.109375 1.195312 2.21875 2.304688 3.328125 3.328125 15.378907 15.800781 32.429688 29.878906 50.859375 41.984375 4.617188 3.078125 9.433594 5.839844 14.421875 8.277344zm0 0" fill="#c81e1e" data-original="#C81E1E" class="" style="fill:#FF7851" data-old_color="#c81e1e"/><path d="m299.066406 322.523438-136.625 138.253906c-18.847656-12.335938-36.234375-26.769532-51.832031-43.019532-1.46875-1.394531-2.941406-2.949218-4.414063-4.503906-6.054687-6.144531-12.269531-13.019531-18.730468-20.882812-1.96875-2.710938-1.96875-6.378906 0-9.089844.335937-.496094.71875-.964844 1.144531-1.390625l125.882813-126.019531c.839843-.785156 1.808593-1.425782 2.863281-1.886719 2.617187-1.25 5.738281-.761719 7.851562 1.230469.242188.089844.445313.265625.570313.492187l.082031.082031c6.667969 8.128907 13.769531 15.890626 21.265625 23.257813 1.066406 1.144531 2.128906 2.210937 3.191406 3.191406 14.738282 15.160157 31.085938 28.667969 48.75 40.285157zm0 0" fill="#f44335" data-original="#F44335" class="" style="fill:#FF7851" data-old_color="#f44335"/><path d="m426.386719 170.898438c-22.667969 25.675781-46.949219 49.875-72.707031 72.449218 0 0-18.089844-6.058594-48.382813-36.265625-11.6875-11.292969-22-23.921875-30.71875-37.632812-2.195313-3.398438-4.050781-6.996094-5.546875-10.753907 22.132812-25.226562 45.816406-49.050781 70.910156-71.339843.511719-.511719 1.027344-.9375 1.539063-1.363281l.082031.085937c1.417969 3.609375 3.191406 7.066406 5.292969 10.324219 8.753906 13.914062 19.183593 26.695312 31.0625 38.058594 9.132812 9.382812 19.070312 17.949218 29.695312 25.601562 5.730469 4.386719 12.015625 8 18.6875 10.75zm0 0" fill="#cfd8dc" data-original="#CFD8DC" class="active-path" style="fill:#F5F5F5" data-old_color="#cfd8dc"/><path d="m413.757812 153.148438c-1.964843 2.21875-4.011718 4.523437-6.144531 6.914062-20.941406 23.074219-43.164062 44.953125-66.5625 65.535156 0 0-18.089843-6.058594-48.382812-36.265625-7.339844-7.339843-13.3125-14.082031-18.089844-19.882812-2.195313-3.398438-4.050781-6.996094-5.546875-10.753907 22.132812-25.226562 45.816406-49.050781 70.910156-71.339843 1.964844 2.734375 4.183594 5.71875 6.914063 9.046875 5.746093 7.121094 11.898437 13.902344 18.429687 20.308594 30.210938 30.292968 48.386719 36.351562 48.386719 36.351562zm0 0" fill="#f5f5f5" data-original="#F5F5F5" class="" style="fill:#F5F5F5"/><path d="m474.683594 98.195312s-6.058594 24.234376-48.296875 72.703126l-.085938-.085938s-18.175781-6.058594-48.382812-36.351562c-4.269531-4.265626-8.023438-8.191407-11.265625-11.945313-.089844-.007813-.164063-.078125-.171875-.171875-10.445313-10.46875-18.890625-22.757812-24.917969-36.265625l-.082031-.085937c48.46875-42.238282 72.703125-48.296876 72.703125-48.296876zm0 0" fill="#549414" data-original="#8C5B13" class="" style="fill:#78C2AD" data-old_color="#549414"/><path d="m457.789062 81.296875c-1.023437 3.328125-9.132812 27.480469-48.214843 72.277344l-.085938-.082031s-15.957031-5.292969-42.835937-30.976563c-.089844-.007813-.164063-.078125-.171875-.171875-10.445313-10.46875-18.890625-22.757812-24.917969-36.265625l-.082031-.085937c48.46875-42.238282 72.703125-48.296876 72.703125-48.296876zm0 0" fill="#60a917" data-original="#C27E1B" class="" data-old_color="#60a917" style="fill:#78C2AD"/><path d="m474.667969 106.726562c-3.449219 0-6.5625-2.078124-7.882813-5.265624-1.320312-3.191407-.589844-6.859376 1.851563-9.300782l24.191406-24.191406c3.335937-3.355469 3.332031-8.773438-.007813-12.125l-36.285156-36.292969c-3.355468-3.335937-8.777344-3.335937-12.125.011719l-24.191406 24.183594c-3.34375 3.257812-8.6875 3.226562-11.992188-.078125-3.300781-3.300781-3.335937-8.644531-.074218-11.992188l24.191406-24.191406c10.027344-9.976563 26.226562-9.980469 36.257812-.007813l36.289063 36.300782c9.984375 10.023437 9.988281 26.226562.011719 36.257812l-24.203125 24.191406c-1.597657 1.601563-3.765625 2.503907-6.03125 2.5zm0 0" data-original="#000000" class="" style="fill:#000000"/><path d="m305.316406 215.59375c-2.261718 0-4.433594-.898438-6.03125-2.5-31.308594-31.308594-38.082031-50.902344-38.351562-51.714844-.96875-2.894531-.3125-6.085937 1.71875-8.363281 97.390625-109.589844 147.382812-123.066406 149.464844-123.582031 2.90625-.726563 5.984374.121094 8.101562 2.242187l12.089844 12.101563c2.171875 2.152344 3.027344 5.300781 2.238281 8.253906-.785156 2.957031-3.09375 5.265625-6.046875 6.050781-2.957031.785157-6.105469-.066406-8.257812-2.238281l-8.242188-8.25c-13.347656 5.679688-58 29.207031-132.890625 112.605469 8.6875 15.117187 19.554687 28.875 32.246094 40.828125 2.441406 2.4375 3.171875 6.109375 1.851562 9.296875-1.320312 3.191406-4.433593 5.269531-7.882812 5.269531zm0 0" data-original="#000000" class="" style="fill:#000000"/><path d="m353.695312 251.882812c-.917968 0-1.828124-.148437-2.695312-.441406-.816406-.265625-20.40625-7.039062-51.714844-38.347656-3.332031-3.335938-3.332031-8.738281.003906-12.070312 3.332032-3.332032 8.734376-3.332032 12.066407.003906 27.976562 27.964844 44.957031 34.199218 45.125 34.257812 3.925781 1.371094 6.289062 5.371094 5.601562 9.472656-.6875 4.097657-4.226562 7.109376-8.382812 7.125zm0 0" data-original="#000000" class="" style="fill:#000000"/><path d="m377.894531 143.019531c-2.265625 0-4.4375-.898437-6.035156-2.503906-31.308594-31.304687-38.082031-50.898437-38.351563-51.710937-1.476562-4.453126.921876-9.269532 5.367188-10.769532 4.445312-1.503906 9.273438.863282 10.800781 5.304688.183594.507812 6.570313 17.433594 34.25 45.117187 2.441407 2.4375 3.171875 6.109375 1.847657 9.296875-1.320313 3.1875-4.429688 5.265625-7.878907 5.269532zm0 0" data-original="#000000" class="" style="fill:#000000"/><path d="m426.269531 179.308594c-.917969 0-1.824219-.148438-2.691406-.441406-.816406-.265626-20.410156-7.039063-51.71875-38.351563-2.21875-2.140625-3.105469-5.3125-2.328125-8.296875.78125-2.984375 3.113281-5.3125 6.097656-6.09375 2.980469-.78125 6.15625.109375 8.296875 2.328125 27.976563 27.964844 44.960938 34.199219 45.125 34.257813 3.921875 1.371093 6.285157 5.371093 5.597657 9.46875-.6875 4.101562-4.222657 7.109374-8.378907 7.128906zm0 0" data-original="#000000" class="" style="fill:#000000"/><path d="m179.984375 486.074219c-1.152344 0-2.292969-.234375-3.351563-.691407-1.699218-.722656-42.214843-18.546874-94.898437-80.964843-5.671875-6.804688-5.25-16.804688.976563-23.109375l131.339843-131.332032c3.316407-3.421874 7.957031-5.230468 12.714844-4.960937 4.808594.199219 9.316406 2.398437 12.433594 6.070313 46.761719 55.015624 83.160156 73.023437 87.152343 74.898437 2.851563 1.234375 4.808594 3.921875 5.105469 7.019531.296875 3.09375-1.113281 6.105469-3.679687 7.859375-2.566406 1.753907-5.886719 1.972657-8.660156.570313-7.082032-3.316406-44.851563-22.730469-92.917969-79.300782l-131.414063 131.234376c49.75 58.992187 88.210938 76.175781 88.59375 76.34375 3.714844 1.605468 5.789063 5.601562 4.96875 9.5625-.820312 3.964843-4.3125 6.804687-8.359375 6.800781zm0 0" data-original="#000000" class="" style="fill:#000000"/><path d="m353.703125 251.882812c-3.542969 0-6.714844-2.191406-7.972656-5.5-1.257813-3.308593-.339844-7.054687 2.304687-9.40625 86.683594-77.050781 110.925782-122.941406 116.742188-136.601562l-14.292969-14.289062c-2.210937-2.144532-3.09375-5.316407-2.3125-8.292969.78125-2.980469 3.109375-5.304688 6.089844-6.085938 2.976562-.785156 6.144531.101563 8.289062 2.3125l18.152344 18.140625c2.121094 2.117188 2.96875 5.191406 2.242187 8.101563-.519531 2.082031-13.996093 52.074219-123.578124 149.464843-1.558594 1.394532-3.574219 2.160157-5.664063 2.15625zm0 0" data-original="#000000" class="" style="fill:#000000"/><path d="m57.335938 463.574219c-2.265626.003906-4.4375-.894531-6.035157-2.496094-15.3125-14.863281-29.113281-31.199219-41.207031-48.777344-15.421875-23.898437-12.027344-55.328125 8.140625-75.382812l141.941406-141.933594c57.191407-57.183594 108.757813-45.125 110.917969-44.582031 4.476562 1.210937 7.167969 5.773437 6.058594 10.277344-1.109375 4.503906-5.613282 7.296874-10.140625 6.289062-1.867188-.441406-44.84375-9.824219-94.769531 40.082031l-141.941407 141.933594c-14.464843 14.316406-16.949219 36.800781-5.957031 53.929687 11.464844 16.609376 24.535156 32.046876 39.023438 46.09375 2.441406 2.441407 3.171874 6.109376 1.851562 9.296876s-4.433594 5.269531-7.882812 5.269531zm0 0" data-original="#000000" class="" style="fill:#000000"/><path d="m132.5 511.933594c-11.519531.03125-22.796875-3.324219-32.425781-9.648438-17.578125-12.09375-33.914063-25.898437-48.773438-41.207031-3.261719-3.347656-3.226562-8.691406.074219-11.992187 3.304688-3.304688 8.648438-3.335938 11.992188-.078126 14.046874 14.492188 29.484374 27.5625 46.089843 39.027344 17.128907 10.992188 39.617188 8.511719 53.929688-5.960937l141.941406-141.941407c49.949219-49.949218 40.507813-92.957031 40.082031-94.765624-1.007812-4.527344 1.785156-9.03125 6.285156-10.140626 4.503907-1.109374 9.070313 1.578126 10.28125 6.058594.542969 2.164063 12.609376 53.722656-44.582031 110.917969l-141.933593 141.9375c-11.394532 11.394531-26.847657 17.792969-42.960938 17.792969zm0 0" data-original="#000000" class="" style="fill:#000000"/><path d="m93.625 330.507812c-3.449219 0-6.5625-2.078124-7.882812-5.265624-1.320313-3.1875-.589844-6.859376 1.851562-9.300782l108.867188-108.859375c3.34375-3.246093 8.679687-3.207031 11.976562.089844 3.292969 3.296875 3.335938 8.628906.089844 11.976563l-108.867188 108.859374c-1.597656 1.605469-3.769531 2.503907-6.035156 2.5zm0 0" data-original="#000000" class="" style="fill:#000000"/><path d="m45.242188 378.902344c-3.449219 0-6.5625-2.082032-7.882813-5.269532s-.589844-6.859374 1.851563-9.296874l24.191406-24.203126c3.34375-3.257812 8.6875-3.226562 11.988281.078126 3.304687 3.300781 3.339844 8.644531.078125 11.992187l-24.191406 24.199219c-1.597656 1.601562-3.769532 2.5-6.035156 2.5zm0 0" data-original="#000000" class="" style="fill:#000000"/></g></g> </svg>
