<svg height='100px' width='100px'  fill="#FF7851" xmlns="http://www.w3.org/2000/svg" xmlns:xlink="http://www.w3.org/1999/xlink" version="1.1" x="0px" y="0px" viewBox="0 0 100 100" enable-background="new 0 0 100 100" xml:space="preserve"><g><path d="M40.988,38.725c-1.087-1.431-1.661-2.932-1.807-4.723c-0.513-6.34-1.025-12.681-1.541-19.021   c0.762-0.049,1.432-0.508,1.726-1.222c0.309-0.753,0.137-1.61-0.441-2.184c-0.164-0.162-0.416-0.332-0.801-0.546   c0.492-0.535,0.793-1.248,0.793-2.03c0-1.654-1.346-3-3-3h-9.843c-1.654,0-3,1.346-3,3c0,0.789,0.306,1.507,0.805,2.043   c-0.38,0.212-0.622,0.375-0.782,0.534c-0.578,0.573-0.75,1.43-0.44,2.185c0.291,0.706,0.952,1.161,1.703,1.217   c-0.518,6.365-1.049,12.725-1.604,19.086c-0.152,1.748-0.714,3.215-1.767,4.62l-3.087,4.115c-0.942,1.257-1.4,2.631-1.4,4.202v1.12   v34.757v6.119c0,2.758,2.244,5.002,5.003,5.002h18.994c2.758,0,5.002-2.244,5.002-5.002l0.002-41.975   c0-1.587-0.467-2.974-1.429-4.237L40.988,38.725z M25.856,12.267c0.184-0.092,0.353-0.179,0.506-0.267h2.14v-2h-2.425   c-0.001,0-0.002,0-0.003,0c-0.552,0-1-0.449-1-1c0-0.542,0.458-1,1-1h9.843c0.552,0,1,0.449,1,1s-0.448,1-1,1l-0.002,0h-4.413v2   h4.151c0.12,0.066,0.246,0.131,0.379,0.198c0.39,0.194,1.302,0.649,1.492,0.801c0,0-0.004,0.001-0.01,0.001h-0.035l0,0H24.522   l-0.001,0.015h-0.037C24.667,12.866,25.469,12.461,25.856,12.267z M18.501,50h2.001c6.064,0,10.999,4.935,10.999,11v9   c0,6.066-4.935,11-10.999,11h-2.001V50z M43.5,88.998c0,1.656-1.347,3.002-3.002,3.002H21.504c-1.656,0-3.003-1.346-3.003-3.002V83   h2.001c7.168,0,12.999-5.832,12.999-13v-9c0-7.168-5.831-13-12.999-13h-2.001v-0.999c0-1.138,0.318-2.092,1-3.002l3.087-4.116   c1.286-1.715,1.972-3.51,2.158-5.645c0.56-6.412,1.098-12.822,1.619-19.238h9.269c0.52,6.388,1.036,12.776,1.553,19.164   c0.178,2.189,0.879,4.023,2.207,5.771l3.086,4.06c0.697,0.917,1.021,1.879,1.021,3.028L43.5,88.998z"></path><path d="M36.987,40.225c-1.087-1.431-1.66-2.932-1.806-4.722L34.23,23.75l-1.993,0.161l0.951,11.754   c0.177,2.188,0.878,4.022,2.207,5.771l3.086,4.061c0.696,0.915,1.021,1.877,1.021,3.027L39.5,74h2l0.001-25.477   c0-1.588-0.468-2.975-1.428-4.237L36.987,40.225z"></path><rect x="39.501" y="76" width="2" height="3"></rect><path d="M83.271,25c0.115-0.527,0.176-1.065,0.176-1.614c0-3.163-1.934-5.901-4.762-7.041l0.006-0.016   c-0.221-0.09-0.449-0.158-0.678-0.226c-0.063-0.019-0.121-0.05-0.186-0.067c-0.656-2.709-3.1-4.673-5.951-4.673   c-2.279,0-4.316,1.24-5.373,3.18c-0.793-0.335-1.646-0.509-2.52-0.509c-2.916,0-5.361,1.899-6.176,4.577   c-0.006-0.005-0.014-0.007-0.018-0.013c-0.027,0.087-0.039,0.181-0.063,0.27c-0.021,0.086-0.059,0.166-0.078,0.253   c-2.988,0.55-5.363,2.909-5.977,5.877h-0.172v1.218L51.441,27h0.061v9.504c0,7.137,1.029,13.33,3.342,20.082   c1.992,5.818,3.045,12.391,3.045,19.002c0,4.229-0.42,8.4-1.248,12.398c-0.314,1.521,0.037,2.965,1.02,4.172   C58.627,93.346,60.004,94,61.537,94h11.926c1.531,0,2.908-0.654,3.877-1.844c0.98-1.205,1.334-2.648,1.018-4.17   c-0.826-3.998-1.246-8.17-1.246-12.398c0-6.611,1.053-13.184,3.045-19.002c2.311-6.751,3.342-12.945,3.342-20.082V25H83.271z    M57.539,21.212c0.072,0.681,0.252,1.343,0.537,1.975l1.822-0.823c-0.264-0.584-0.396-1.206-0.396-1.846   c0-0.169,0.016-0.334,0.035-0.498c0.02-0.177,0.057-0.347,0.096-0.516c0.105-0.428,0.266-0.835,0.482-1.209   c-0.004-0.001-0.008-0.003-0.012-0.005c0.773-1.354,2.215-2.254,3.881-2.254c0.648,0,1.279,0.14,1.859,0.406   c-0.059,0.34-0.092,0.69-0.092,1.047c0,0.704,0.119,1.397,0.357,2.061l1.883-0.673c-0.16-0.447-0.24-0.914-0.24-1.388   c0-0.878,0.281-1.689,0.75-2.358c-0.002,0-0.004-0.002-0.004-0.002c0.756-1.086,2-1.764,3.379-1.764   c1.658,0,3.096,0.992,3.746,2.434c-1.422,0.042-2.832,0.461-4.031,1.266l1.113,1.661c1.254-0.841,2.816-1.12,4.277-0.82   c0.205,0.043,0.404,0.096,0.602,0.16c0.092,0.031,0.186,0.058,0.277,0.093c2.127,0.82,3.586,2.867,3.586,5.229   c0,0.553-0.08,1.093-0.236,1.614h-1.709c-1.654,0-3,1.346-3,3V39c0,0.551-0.449,1-1,1l0,0c-0.553,0-1-0.449-1-1V28   c0-1.651-1.342-2.995-2.992-2.999v0h-0.008H53.711C54.234,23.167,55.703,21.725,57.539,21.212z M81.498,36.504   c0,6.906-0.998,12.9-3.234,19.435c-2.063,6.023-3.152,12.818-3.152,19.648c0,4.365,0.434,8.674,1.287,12.805   c0.193,0.926-0.014,1.768-0.609,2.502C75.191,91.629,74.408,92,73.463,92H61.537c-0.945,0-1.729-0.371-2.326-1.105   s-0.803-1.576-0.611-2.502c0.027-0.129,0.045-0.262,0.07-0.393h9.832v-2h-9.473c0.561-3.393,0.859-6.881,0.859-10.412   c0-6.83-1.09-13.625-3.152-19.648c-1.963-5.736-2.971-11.055-3.189-16.94h15.885v-2H53.51c0-0.167-0.008-0.327-0.008-0.495V27h18   c0.551,0,1,0.448,1,1V39c0,1.654,1.346,3,3,3s3-1.346,3-3V28c0-0.551,0.447-1,1-1h1.996V36.504z"></path><rect x="70.707" y="86" width="3.795" height="2"></rect></g></svg>
