<?xml version="1.0"?>
<svg xmlns="http://www.w3.org/2000/svg" xmlns:xlink="http://www.w3.org/1999/xlink" version="1.1" id="Capa_1" x="0px" y="0px" viewBox="0 0 512.001 512.001" style="enable-background:new 0 0 512.001 512.001;" xml:space="preserve" width="512px" height="512px" class=""><g><g><g>
	<path style="fill:#56CC9D" d="M494.252,240.372c-9.217,9.163-23.123,11.707-34.987,6.4c-2.045-0.939-3.989-2.082-5.803-3.413   c-1.109,1.963-2.133,3.925-3.328,5.888c-7.68,13.739-16.043,27.136-25.259,40.363c6.512,5.114,10.703,12.625,11.633,20.853   c0.93,8.228-1.477,16.485-6.683,22.923c-8.985,11.058-24.263,14.729-37.291,8.96c-2.204-0.992-4.293-2.222-6.229-3.669   c-1.877,2.133-3.84,4.352-5.888,6.4c-5.12,5.632-10.411,11.093-15.787,16.469c-20.146,20.018-41.956,38.288-65.195,54.613   c8.33,14.859,3.155,33.653-11.605,42.155c-8.724,5.006-19.314,5.545-28.501,1.451c-5.272-2.252-9.798-5.95-13.056-10.667   c-5.461,2.901-11.008,5.803-16.555,8.533c-15.795,7.653-31.972,14.489-48.469,20.48c2.53,10.656-3.736,21.425-14.251,24.491   c-6.481,1.978-13.519,0.673-18.859-3.499c-2.995-2.287-5.299-5.359-6.656-8.875c-7.71,2.162-15.639,3.451-23.637,3.84   c-6.263,0.398-12.549,0.198-18.773-0.597c-22.824-2.677-44.094-12.921-60.416-29.099c-19.603-19.884-30.442-46.779-30.106-74.699   c0.337-27.92,11.821-54.546,31.898-73.952c10.939-10.913,24.092-19.352,38.571-24.747c0.266-0.208,0.617-0.272,0.939-0.171   c5.937-1.292,11.805-2.887,17.579-4.779c0,0,0.085-0.085,0.341,0c44.684-13.928,85.365-38.395,118.613-71.339   c33.141-32.797,57.827-73.149,71.936-117.589c-0.085-0.256,0-0.341,0-0.341c1.963-5.803,3.413-11.52,4.864-17.408   c-0.102-0.322-0.038-0.673,0.171-0.939c5.455-14.389,13.955-27.43,24.917-38.229c17.275-17.17,39.811-28.047,64-30.891   c34.878-4.558,69.668,9.012,92.247,35.983c22.579,26.971,29.82,63.605,19.199,97.137c0,0-8.875,30.635-14.763,45.568   c5.75,1.3,11.016,4.199,15.189,8.363c5.896,5.808,9.216,13.739,9.216,22.016C503.468,226.632,500.148,234.563,494.252,240.372   L494.252,240.372z" data-original="#4AA840" class="active-path" data-old_color="#4AA840"/>
	<path style="fill:#56CC9D" d="M468.652,240.372c-2.732,2.664-5.909,4.83-9.387,6.4c-10.327,4.548-22.294,3.247-31.403-3.413   c-8.69,15.92-18.233,31.359-28.587,46.251c8.542,6.747,12.923,17.477,11.543,28.274c-1.38,10.797-8.319,20.081-18.284,24.462   c-3.817,1.709-7.937,2.638-12.117,2.731c-7.098,0.11-14.032-2.141-19.712-6.4c-6.912,7.851-14.251,15.445-21.675,22.869   c-20.146,20.018-41.956,38.288-65.195,54.613c8.33,14.859,3.155,33.653-11.605,42.155c-0.941,0.534-1.909,1.019-2.901,1.451   c-5.272-2.252-9.798-5.95-13.056-10.667c-5.461,2.901-11.008,5.803-16.555,8.533c-3.584-2.173-6.667-5.082-9.045-8.533   c-20.934,11.252-42.667,20.949-65.024,29.013c1.919,7.869-1.034,16.126-7.509,20.992c-2.995-2.287-5.299-5.359-6.656-8.875   c-7.71,2.162-15.639,3.451-23.637,3.84c-0.789-1.207-1.447-2.494-1.963-3.84c-5.505,1.54-11.128,2.624-16.811,3.242   c-22.824-2.677-44.094-12.921-60.416-29.099c-19.603-19.884-30.442-46.779-30.106-74.699c0.337-27.92,11.821-54.546,31.898-73.951   c10.939-10.913,24.092-19.352,38.571-24.747c0.266-0.208,0.617-0.272,0.939-0.171c5.937-1.292,11.805-2.887,17.579-4.779   c0,0,0.085-0.085,0.341,0c44.684-13.928,85.365-38.395,118.613-71.339c33.141-32.797,57.827-73.149,71.936-117.589   c-0.085-0.256,0-0.341,0-0.341c1.963-5.803,3.413-11.52,4.864-17.408c-0.102-0.322-0.038-0.673,0.171-0.939   c5.455-14.389,13.955-27.43,24.917-38.229c17.275-17.17,39.811-28.047,64-30.891c30.437,3.583,57.683,20.574,74.293,46.33   s20.846,57.585,11.553,86.79c0,0-8.875,30.635-14.763,45.568c5.75,1.3,11.016,4.199,15.189,8.363   c5.896,5.808,9.216,13.739,9.216,22.016C477.868,226.632,474.548,234.563,468.652,240.372z" data-original="#56D049" class="" data-old_color="#56D049"/>
	<path style="fill:#FFFFFF;" d="M407.977,9.289c-24.189,2.844-46.725,13.721-64,30.891c-10.962,10.8-19.462,23.84-24.917,38.229   c-0.209,0.265-0.272,0.617-0.171,0.939c-1.451,5.888-2.901,11.605-4.864,17.408c0,0-0.085,0.085,0,0.341   c-14.109,44.44-38.795,84.792-71.936,117.589c-33.248,32.943-73.929,57.411-118.613,71.339c-0.256-0.085-0.341,0-0.341,0   c-5.774,1.892-11.641,3.487-17.579,4.779c-0.322-0.101-0.673-0.037-0.939,0.171c-14.479,5.395-27.632,13.834-38.571,24.747   c-20.076,19.405-31.561,46.032-31.898,73.952c-0.337,27.92,10.503,54.815,30.106,74.699c16.322,16.177,37.592,26.422,60.416,29.099   c-31.613,3.961-63.301-6.758-86.016-29.099c-19.603-19.884-30.442-46.779-30.106-74.699c0.337-27.92,11.821-54.546,31.898-73.952   c10.939-10.913,24.092-19.352,38.571-24.747c0.266-0.208,0.617-0.272,0.939-0.171c5.937-1.292,11.805-2.887,17.579-4.779   c0,0,0.085-0.085,0.341,0c44.684-13.928,85.365-38.395,118.613-71.339c33.141-32.797,57.827-73.149,71.936-117.589   c-0.085-0.256,0-0.341,0-0.341c1.963-5.803,3.413-11.52,4.864-17.408c-0.102-0.322-0.038-0.673,0.171-0.939   c5.455-14.389,13.955-27.43,24.917-38.229C341.953,16.731,374.959,5.352,407.977,9.289z" data-original="#FFFFFF" class=""/>
	<g>
		<path d="M161.026,511.963c-9.35-0.002-18.153-4.408-23.758-11.892c-37.634,8.463-76.994-2.692-104.592-29.642    c-11.645-11.484-20.559-25.439-26.083-40.833c-1.589-4.43,0.71-9.31,5.138-10.905c4.428-1.595,9.311,0.697,10.912,5.122    c4.675,13.006,12.21,24.796,22.05,34.5c24.971,24.28,61.035,33.323,94.508,23.7c4.237-1.194,8.685,1.039,10.258,5.15    c2.4,5.953,8.949,9.089,15.092,7.225c6.154-1.786,9.849-8.06,8.425-14.308c-1.008-4.222,1.317-8.528,5.4-10    c21.943-7.928,43.275-17.454,63.825-28.5c3.823-2.044,8.57-0.905,11.05,2.65c6.867,9.691,19.973,12.577,30.275,6.667    c10.708-6.121,14.488-19.723,8.475-30.492c-2.165-3.823-1.076-8.664,2.517-11.192c22.831-16.075,44.268-34.044,64.083-53.717    c7.308-7.242,14.492-14.8,21.358-22.475c2.962-3.293,7.947-3.781,11.492-1.125c9.882,7.425,23.864,5.721,31.675-3.858    c3.807-4.649,5.582-10.636,4.925-16.609c-0.657-5.973-3.69-11.43-8.417-15.141c-3.55-2.792-4.31-7.866-1.733-11.575    c10.139-14.634,19.497-29.794,28.033-45.417c1.184-2.164,3.245-3.711,5.653-4.242c2.408-0.532,4.929,0.003,6.914,1.467    c9.116,6.633,21.693,5.703,29.733-2.2c5.843-5.814,8.046-14.355,5.744-22.27c-2.303-7.915-8.743-13.941-16.794-15.713    c-2.433-0.548-4.505-2.133-5.67-4.338c-1.165-2.205-1.307-4.81-0.389-7.128c5.7-14.425,14.392-44.525,14.475-44.825    c10.678-33.709,1.697-70.558-23.292-95.575C423.583,7.271,362.166,8.054,324.401,46.229c-9.894,9.771-17.628,21.51-22.7,34.458    c-0.033,0.2-0.075,0.4-0.125,0.6c-1.283,5.433-2.75,11.275-4.783,17.325c-0.068,0.358-0.157,0.711-0.267,1.058    c-14.447,45.787-39.871,87.347-74.058,121.058c-34.145,33.984-76.031,59.169-122.058,73.392c-0.336,0.108-0.678,0.194-1.025,0.258    c-6.308,2.075-12.375,3.567-17.517,4.767c-0.192,0.042-0.392,0.083-0.592,0.108c-13.045,5.005-24.901,12.68-34.808,22.533    c-11.149,10.971-19.529,24.436-24.45,39.283c-1.482,4.473-6.31,6.899-10.783,5.417c-4.474-1.482-6.899-6.31-5.417-10.783    c11.227-33.437,36.865-60.072,69.85-72.567c1.063-0.489,2.207-0.78,3.375-0.858c4.758-1.117,10.258-2.508,15.792-4.375    l0.017,0.033c0.357-0.124,0.722-0.224,1.092-0.3c43.172-13.45,82.456-37.13,114.508-69.025    c32.056-31.606,55.94-70.537,69.592-113.434c0.081-0.392,0.187-0.779,0.317-1.158l-0.033-0.009c1.833-5.316,3.2-10.625,4.4-15.617    c0.085-1.174,0.381-2.323,0.875-3.392c5.934-15.372,15.063-29.31,26.783-40.892c44.432-44.738,116.549-45.521,161.942-1.757    c29.481,29.43,40.133,72.821,27.633,112.558c-0.275,0.942-6.409,22.225-11.933,38.008c3.776,1.886,7.228,4.362,10.225,7.333    c7.518,7.414,11.75,17.533,11.75,28.092c0,10.559-4.232,20.677-11.75,28.092c-11.502,11.275-28.608,14.63-43.517,8.533    c-6.5,11.45-13.45,22.675-20.733,33.5c12.165,14.483,12.347,35.559,0.433,50.25c-11.703,14.408-31.755,18.918-48.5,10.908    c-5.633,6.125-11.442,12.158-17.317,17.983c-18.847,18.706-39.11,35.93-60.608,51.517c5.737,17.808-1.742,37.204-17.95,46.55    c-15.484,8.86-34.953,6.476-47.842-5.858c-17.466,9.073-35.456,17.098-53.875,24.033    C189.687,499.569,176.754,511.969,161.026,511.963L161.026,511.963z M83.443,298.296l-0.017,0.009L83.443,298.296z     M300.709,82.887l-0.009,0.017L300.709,82.887z M301.368,76.621l0.009,0.017L301.368,76.621z" data-original="#000000" class="" data-old_color="#000000" style="fill:#000000"/>
		<path d="M8.534,401.054c-1.115-0.014-2.216-0.246-3.242-0.683c-1.035-0.431-1.988-1.037-2.817-1.791    c-0.75-0.851-1.383-1.798-1.883-2.817c-0.408-1.031-0.609-2.133-0.591-3.242c0.03-2.26,0.914-4.424,2.475-6.059    c0.404-0.367,0.83-0.709,1.275-1.025c0.477-0.325,0.995-0.583,1.542-0.767c0.483-0.246,1-0.42,1.533-0.517    c1.664-0.348,3.394-0.167,4.95,0.517c1.034,0.434,1.986,1.04,2.817,1.792c1.573,1.627,2.459,3.796,2.475,6.058    c-0.014,1.115-0.246,2.216-0.683,3.242c-0.434,1.034-1.04,1.986-1.792,2.817C12.986,400.182,10.804,401.073,8.534,401.054z" data-original="#000000" class="" data-old_color="#000000" style="fill:#000000"/>
		<path d="M409.059,157.104c-3.458,0-6.573-2.087-7.89-5.284c-1.316-3.197-0.573-6.873,1.881-9.308    c5.252-5.188,8.208-12.263,8.208-19.646c0-7.383-2.956-14.458-8.208-19.646c-2.164-2.147-3.019-5.285-2.243-8.233    s3.067-5.257,6.008-6.058c2.941-0.801,6.086,0.028,8.251,2.174c8.484,8.392,13.258,19.829,13.258,31.763    s-4.774,23.371-13.258,31.763C413.471,156.217,411.311,157.107,409.059,157.104L409.059,157.104z" data-original="#000000" class="" data-old_color="#000000" style="fill:#000000"/>
		<path d="M342.393,201.171c-2.251,0.001-4.411-0.889-6.008-2.475c-8.489-8.389-13.267-19.828-13.267-31.763    s4.778-23.373,13.267-31.763c2.164-2.147,5.31-2.975,8.251-2.174c2.941,0.801,5.232,3.111,6.008,6.058s-0.078,6.086-2.243,8.233    c-5.257,5.185-8.217,12.262-8.217,19.646s2.96,14.46,8.217,19.646c2.455,2.435,3.198,6.11,1.881,9.308    S345.85,201.171,342.393,201.171L342.393,201.171z" data-original="#000000" class="" data-old_color="#000000" style="fill:#000000"/>
		<path d="M192.668,351.821c-2.251,0.003-4.412-0.887-6.008-2.475c-11.048-10.884-28.786-10.884-39.834,0    c-3.346,3.318-8.748,3.296-12.067-0.05c-3.318-3.346-3.296-8.748,0.05-12.067c17.706-17.467,46.16-17.467,63.867,0    c2.455,2.435,3.198,6.11,1.881,9.308C199.241,349.734,196.125,351.821,192.668,351.821L192.668,351.821z" data-original="#000000" class="" data-old_color="#000000" style="fill:#000000"/>
		<path d="M120.076,430.554c-11.959,0.031-23.444-4.676-31.942-13.092c-2.164-2.147-3.019-5.285-2.243-8.233    c0.777-2.948,3.067-5.257,6.008-6.058c2.941-0.801,6.086,0.028,8.251,2.174c11.051,10.883,28.791,10.883,39.842,0    c3.346-3.318,8.748-3.296,12.067,0.05c3.318,3.346,3.296,8.748-0.05,12.067C143.515,425.877,132.033,430.584,120.076,430.554    L120.076,430.554z" data-original="#000000" class="" data-old_color="#000000" style="fill:#000000"/>
		<path d="M342.484,287.563c-4.713,0-8.533-3.82-8.533-8.533s3.82-8.533,8.533-8.533c15.446,0.068,28.031-12.38,28.133-27.825    c0-4.713,3.821-8.533,8.533-8.533c4.713,0,8.533,3.82,8.533,8.533C387.57,267.537,367.351,287.619,342.484,287.563z" data-original="#000000" class="" data-old_color="#000000" style="fill:#000000"/>
		<path d="M242.576,292.421c-4.713,0-8.533-3.82-8.533-8.533s3.821-8.533,8.533-8.533c15.444,0.072,28.031-12.373,28.133-27.817    c0-4.713,3.82-8.533,8.533-8.533s8.533,3.82,8.533,8.533C287.661,272.402,267.441,292.481,242.576,292.421L242.576,292.421z" data-original="#000000" class="" data-old_color="#000000" style="fill:#000000"/>
		<path d="M242.393,366.413c-4.713,0-8.533-3.82-8.533-8.533s3.821-8.533,8.533-8.533c15.441,0.068,28.023-12.376,28.125-27.817    c0-4.713,3.82-8.533,8.533-8.533c4.713,0,8.533,3.82,8.533,8.533C287.47,346.391,267.254,366.469,242.393,366.413L242.393,366.413    z" data-original="#000000" class="" data-old_color="#000000" style="fill:#000000"/>
	</g>
</g></g></g> </svg>
