<svg height='100px' width='100px'  fill="#ffffff" xmlns="http://www.w3.org/2000/svg" xmlns:xlink="http://www.w3.org/1999/xlink" viewBox="0 0 40 61" version="1.1" x="0px" y="0px"><title>48 -Pickles- (gastronomy, food, cooking)</title><desc>Created with Sketch.</desc><g stroke="none" stroke-width="1" fill="none" fill-rule="evenodd"><g transform="translate(-970.000000, -882.000000)"><g transform="translate(971.000000, 883.000000)"><path d="M5.1229,25 C5.1229,24.448 5.5709,24 6.1229,24 C6.6749,24 7.1229,24.448 7.1229,25 C7.1229,25.552 6.6749,26 6.1229,26 C5.5709,26 5.1229,25.552 5.1229,25" fill="#ffffff"></path><path d="M9.1229,26 C9.1229,25.448 9.5709,25 10.1229,25 C10.6749,25 11.1229,25.448 11.1229,26 C11.1229,26.552 10.6749,27 10.1229,27 C9.5709,27 9.1229,26.552 9.1229,26" fill="#ffffff"></path><path d="M12.1229,32 C12.1229,31.448 12.5709,31 13.1229,31 C13.6749,31 14.1229,31.448 14.1229,32 C14.1229,32.552 13.6749,33 13.1229,33 C12.5709,33 12.1229,32.552 12.1229,32" fill="#ffffff"></path><path d="M8.1229,30 C8.1229,29.448 8.5709,29 9.1229,29 C9.6749,29 10.1229,29.448 10.1229,30 C10.1229,30.552 9.6749,31 9.1229,31 C8.5709,31 8.1229,30.552 8.1229,30" fill="#ffffff"></path><path d="M6.1229,34 C6.1229,33.448 6.5709,33 7.1229,33 C7.6749,33 8.1229,33.448 8.1229,34 C8.1229,34.552 7.6749,35 7.1229,35 C6.5709,35 6.1229,34.552 6.1229,34" fill="#ffffff"></path><path d="M10.1229,36 C10.1229,35.448 10.5709,35 11.1229,35 C11.6749,35 12.1229,35.448 12.1229,36 C12.1229,36.552 11.6749,37 11.1229,37 C10.5709,37 10.1229,36.552 10.1229,36" fill="#ffffff"></path><path d="M10.1229,41 C10.1229,40.448 10.5709,40 11.1229,40 C11.6749,40 12.1229,40.448 12.1229,41 C12.1229,41.552 11.6749,42 11.1229,42 C10.5709,42 10.1229,41.552 10.1229,41" fill="#ffffff"></path><path d="M7.1229,39 C7.1229,38.448 7.5709,38 8.1229,38 C8.6749,38 9.1229,38.448 9.1229,39 C9.1229,39.552 8.6749,40 8.1229,40 C7.5709,40 7.1229,39.552 7.1229,39" fill="#ffffff"></path><path d="M7.6805,46 L7.6805,46 C5.0415,46 3.2615,43.301 4.3015,40.875 L4.3015,40.875 C6.7305,35.208 6.7305,28.792 4.3015,23.125 L4.3015,23.125 C3.2615,20.699 5.0415,18 7.6805,18 C9.1515,18 10.4805,18.876 11.0595,20.228 L12.3015,23.125 C14.7305,28.792 14.7305,35.208 12.3015,40.875 L11.0595,43.772 C10.4805,45.124 9.1515,46 7.6805,46 L7.6805,46 Z" stroke="#ffffff" stroke-width="2" stroke-linecap="round" stroke-linejoin="round"></path><path d="M24.422,37.4331 C24.183,37.9311 23.585,38.1401 23.087,37.9011 C22.59,37.6611 22.38,37.0641 22.62,36.5661 C22.859,36.0681 23.457,35.8591 23.954,36.0981 C24.452,36.3381 24.661,36.9351 24.422,37.4331" fill="#ffffff"></path><path d="M21.2508,34.7981 C21.0118,35.2961 20.4138,35.5051 19.9158,35.2661 C19.4188,35.0261 19.2088,34.4291 19.4488,33.9311 C19.6878,33.4331 20.2858,33.2241 20.7828,33.4631 C21.2808,33.7031 21.4898,34.3001 21.2508,34.7981" fill="#ffffff"></path><path d="M21.1481,28.0907 C20.9091,28.5887 20.3111,28.7977 19.8131,28.5587 C19.3161,28.3187 19.1061,27.7217 19.3461,27.2237 C19.5851,26.7257 20.1831,26.5167 20.6801,26.7557 C21.1781,26.9957 21.3871,27.5927 21.1481,28.0907" fill="#ffffff"></path><path d="M23.8858,31.6269 C23.6468,32.1249 23.0488,32.3339 22.5508,32.0949 C22.0538,31.8549 21.8438,31.2579 22.0838,30.7599 C22.3228,30.2619 22.9208,30.0529 23.4178,30.2919 C23.9158,30.5319 24.1248,31.1289 23.8858,31.6269" fill="#ffffff"></path><path d="M27.422,28.8891 C27.183,29.3871 26.585,29.5961 26.087,29.3571 C25.59,29.1171 25.38,28.5201 25.62,28.0221 C25.859,27.5241 26.457,27.3151 26.954,27.5541 C27.452,27.7941 27.661,28.3911 27.422,28.8891" fill="#ffffff"></path><path d="M24.6843,25.3529 C24.4453,25.8509 23.8473,26.0599 23.3493,25.8209 C22.8523,25.5809 22.6423,24.9839 22.8823,24.4859 C23.1213,23.9879 23.7193,23.7789 24.2163,24.0179 C24.7143,24.2579 24.9233,24.8549 24.6843,25.3529" fill="#ffffff"></path><path d="M26.8516,20.847 C26.6126,21.345 26.0146,21.554 25.5166,21.315 C25.0196,21.075 24.8096,20.478 25.0496,19.98 C25.2886,19.482 25.8866,19.273 26.3836,19.512 C26.8816,19.752 27.0906,20.349 26.8516,20.847" fill="#ffffff"></path><path d="M31.8285,23.9247 C31.5895,24.4227 30.9915,24.6317 30.4935,24.3927 C29.9965,24.1527 29.7865,23.5557 30.0265,23.0577 C30.2655,22.5597 30.8635,22.3507 31.3605,22.5897 C31.8585,22.8297 32.0675,23.4267 31.8285,23.9247" fill="#ffffff"></path><path d="M31.2198,17.3999 L31.2198,17.3999 C33.5988,18.5439 34.0328,21.7479 32.0438,23.4829 C27.3978,27.5379 24.6178,33.3189 24.3498,39.4789 C24.2348,42.1159 21.4618,43.7769 19.0828,42.6329 C17.7578,41.9949 16.9398,40.6289 17.0038,39.1599 L17.1398,36.0119 C17.4078,29.8509 20.1888,24.0699 24.8348,20.0149 L27.2088,17.9429 C28.3168,16.9759 29.8948,16.7619 31.2198,17.3999 L31.2198,17.3999 Z" stroke="#ffffff" stroke-width="2" stroke-linecap="round" stroke-linejoin="round"></path><path d="M27.1187,40.2192 C27.5097,39.8282 28.1427,39.8282 28.5327,40.2192 C28.9237,40.6102 28.9237,41.2432 28.5327,41.6332 C28.1427,42.0242 27.5097,42.0242 27.1187,41.6332 C26.7277,41.2432 26.7277,40.6102 27.1187,40.2192" fill="#ffffff"></path><path d="M29.24,43.7547 C29.631,43.3637 30.264,43.3637 30.654,43.7547 C31.045,44.1457 31.045,44.7787 30.654,45.1687 C30.264,45.5597 29.631,45.5597 29.24,45.1687 C28.849,44.7787 28.849,44.1457 29.24,43.7547" fill="#ffffff"></path><path d="M27.1187,50.1187 C27.5097,49.7277 28.1427,49.7277 28.5327,50.1187 C28.9237,50.5097 28.9237,51.1427 28.5327,51.5327 C28.1427,51.9237 27.5097,51.9237 27.1187,51.5327 C26.7277,51.1427 26.7277,50.5097 27.1187,50.1187" fill="#ffffff"></path><path d="M25.7045,45.8761 C26.0955,45.4851 26.7285,45.4851 27.1185,45.8761 C27.5095,46.2671 27.5095,46.9001 27.1185,47.2901 C26.7285,47.6811 26.0955,47.6811 25.7045,47.2901 C25.3135,46.9001 25.3135,46.2671 25.7045,45.8761" fill="#ffffff"></path><path d="M21.4619,47.2903 C21.8529,46.8993 22.4859,46.8993 22.8759,47.2903 C23.2669,47.6813 23.2669,48.3143 22.8759,48.7043 C22.4859,49.0953 21.8529,49.0953 21.4619,48.7043 C21.0709,48.3143 21.0709,47.6813 21.4619,47.2903" fill="#ffffff"></path><path d="M22.876,51.5329 C23.267,51.1419 23.9,51.1419 24.29,51.5329 C24.681,51.9239 24.681,52.5569 24.29,52.9469 C23.9,53.3379 23.267,53.3379 22.876,52.9469 C22.485,52.5569 22.485,51.9239 22.876,51.5329" fill="#ffffff"></path><path d="M19.3405,55.0685 C19.7315,54.6775 20.3645,54.6775 20.7545,55.0685 C21.1455,55.4595 21.1455,56.0925 20.7545,56.4825 C20.3645,56.8735 19.7315,56.8735 19.3405,56.4825 C18.9495,56.0925 18.9495,55.4595 19.3405,55.0685" fill="#ffffff"></path><path d="M18.6334,51.5329 C19.0244,51.1419 19.6574,51.1419 20.0474,51.5329 C20.4384,51.9239 20.4384,52.5569 20.0474,52.9469 C19.6574,53.3379 19.0244,53.3379 18.6334,52.9469 C18.2424,52.5569 18.2424,51.9239 18.6334,51.5329" fill="#ffffff"></path><path d="M14.0779,56.877 L14.0779,56.877 C12.2119,55.011 12.8619,51.844 15.3119,50.864 C21.0369,48.574 25.5739,44.037 27.8639,38.312 C28.8439,35.862 32.0109,35.212 33.8769,37.078 C34.9169,38.118 35.2369,39.678 34.6909,41.043 L33.5209,43.969 C31.2309,49.694 26.6939,54.23 20.9689,56.52 L18.0429,57.691 C16.6779,58.237 15.1179,57.917 14.0779,56.877 L14.0779,56.877 Z" stroke="#ffffff" stroke-width="2" stroke-linecap="round" stroke-linejoin="round"></path><path d="M1,4 L37,4" stroke="#ffffff" stroke-width="2" stroke-linecap="round" stroke-linejoin="round"></path><path d="M35,5.5777 L35,1.9997 C35,0.8957 34.105,-0.0003 33,-0.0003 L5.052,-0.0003 C3.954,-0.0003 3.061,0.8847 3.052,1.9827 L3.021,5.5777 C3.008,7.1297 2.385,8.6147 1.287,9.7127 C0.024,10.9757 0.024,13.0237 1.287,14.2867 C2.233,15.2327 3.767,15.2327 4.713,14.2867 L5.287,13.7127 C6.233,12.7667 7.767,12.7667 8.713,13.7127 L9.287,14.2867 C10.233,15.2327 11.767,15.2327 12.713,14.2867 L13.287,13.7127 C14.233,12.7667 15.767,12.7667 16.713,13.7127 L17.287,14.2867 C18.233,15.2327 19.767,15.2327 20.713,14.2867 L21.287,13.7127 C22.233,12.7667 23.767,12.7667 24.713,13.7127 L25.287,14.2867 C26.233,15.2327 27.767,15.2327 28.713,14.2867 L29.287,13.7127 C30.233,12.7667 31.767,12.7667 32.713,13.7127 L33.287,14.2867 C34.233,15.2327 35.767,15.2327 36.713,14.2867 C37.976,13.0237 37.976,10.9757 36.713,9.7127 C35.616,8.6157 35,7.1287 35,5.5777 L35,5.5777 Z" stroke="#ffffff" stroke-width="2" stroke-linecap="round" stroke-linejoin="round"></path><path d="M32.7128,13.7128 C31.7668,12.7668 30.2328,12.7668 29.2868,13.7128 L28.7128,14.2868 C27.7668,15.2328 26.2328,15.2328 25.2868,14.2868 L24.7128,13.7128 C23.7668,12.7668 22.2328,12.7668 21.2868,13.7128 L20.7128,14.2868 C19.7668,15.2328 18.2328,15.2328 17.2868,14.2868 L16.7128,13.7128 C15.7668,12.7668 14.2328,12.7668 13.2868,13.7128 L12.7128,14.2868 C11.7668,15.2328 10.2328,15.2328 9.2868,14.2868 L8.7128,13.7128 C7.7668,12.7668 6.2328,12.7668 5.2868,13.7128 L4.7128,14.2868 C4.2398,14.7598 3.6198,14.9968 2.9998,14.9968 L2.9998,54.0018 C2.9998,56.2098 4.7898,58.0008 6.9988,58.0018 L30.9988,58.0098 C33.2078,58.0108 34.9998,56.2198 34.9998,54.0098 L34.9998,14.9968 C34.3798,14.9968 33.7598,14.7598 33.2868,14.2868 L32.7128,13.7128 L32.7128,13.7128 Z" stroke="#ffffff" stroke-width="2" stroke-linecap="round" stroke-linejoin="round"></path></g></g></g></svg>