<svg height='110px' width='110px'  fill="#56CC9D" xmlns="http://www.w3.org/2000/svg" xmlns:xlink="http://www.w3.org/1999/xlink" version="1.1" x="0px" y="0px" viewBox="0 0 100 100" enable-background="new 0 0 100 100" xml:space="preserve"><g display="none"><rect x="53.5" y="-86.5" display="inline" fill="#56CC9D" stroke="#56CC9D" stroke-miterlimit="10" width="95" height="95"></rect><rect x="53.5" y="35.5" display="inline" fill="#56CC9D" stroke="#56CC9D" stroke-miterlimit="10" width="95" height="95"></rect><rect x="-68.5" y="35.5" display="inline" fill="#56CC9D" stroke="#56CC9D" stroke-miterlimit="10" width="95" height="95"></rect><rect x="-68.5" y="-86.5" display="inline" fill="#56CC9D" stroke="#56CC9D" stroke-miterlimit="10" width="95" height="95"></rect></g><g><path fill="#56CC9D" d="M40.669,71.671c0.499,0.554,0.455,1.407-0.099,1.906c-0.796,0.718-1.803,1.071-2.812,1.071   c-1.165,0-2.334-0.47-3.188-1.394c-0.787-0.852-1.192-1.951-1.141-3.094c0.051-1.116,0.533-2.141,1.359-2.886   c0.551-0.499,1.405-0.457,1.906,0.098c0.5,0.553,0.456,1.407-0.098,1.906c-0.286,0.258-0.453,0.615-0.471,1.004   c-0.019,0.417,0.132,0.822,0.426,1.139c0.596,0.643,1.587,0.712,2.208,0.151C39.315,71.073,40.169,71.115,40.669,71.671z    M60.225,46.734c-0.009,0-0.018,0-0.026,0c-0.733,0-1.335,0.588-1.349,1.325c-0.014,0.745,0.579,1.361,1.324,1.375   c0.886,0.017,1.599,0.721,1.591,1.568c-0.005,0.394-0.165,0.764-0.45,1.042c-0.296,0.287-0.688,0.443-1.11,0.443   c-0.019,0-0.039-0.001-0.058,0c-0.733,0-1.335,0.588-1.349,1.325c-0.014,0.746,0.579,1.361,1.324,1.375   c0.028,0,0.056,0.001,0.084,0.001c1.127,0,2.186-0.427,2.988-1.206c0.807-0.783,1.258-1.83,1.27-2.951   C64.487,48.705,62.585,46.778,60.225,46.734z M59.28,28.99c0.315,0.676,1.12,0.969,1.794,0.652   c0.676-0.315,0.968-1.119,0.651-1.794c-0.982-2.104-3.538-3.067-5.7-2.147c-1.073,0.458-1.889,1.301-2.297,2.373   c-0.402,1.056-0.357,2.205,0.127,3.236c0.229,0.489,0.716,0.776,1.223,0.776c0.192,0,0.388-0.041,0.573-0.128   c0.675-0.317,0.965-1.121,0.647-1.796c-0.17-0.361-0.187-0.762-0.048-1.127c0.146-0.38,0.441-0.682,0.834-0.85   C57.92,27.827,58.905,28.188,59.28,28.99z M79.535,39.083c0,2.413-1.576,4.496-3.823,5.258c-0.611,2.499-1.37,5.104-2.266,7.771   c0.861,0.993,1.34,2.247,1.344,3.581c0.004,1.481-0.572,2.876-1.623,3.93c-0.893,0.896-2.037,1.455-3.277,1.614   c-2.432,5.257-5.655,10.33-9.203,14.485c0.21,0.581,0.323,1.194,0.331,1.815c0.018,1.494-0.549,2.899-1.596,3.958   c-1.05,1.062-2.455,1.647-3.956,1.647c-0.753,0-1.491-0.153-2.181-0.448c-4.728,3.45-9.646,5.197-14.638,5.197   c-1.425,0-2.87-0.145-4.297-0.432c-7.798-1.564-13.635-8.812-13.879-17.234c-0.175-6.006,2.996-10.476,6.26-14.192   c-0.299-0.662-0.465-1.369-0.487-2.095c-0.045-1.486,0.498-2.889,1.528-3.952c1.414-1.458,3.584-2.034,5.585-1.464   c3.432-4.543,6.087-9.787,7.37-14.539c-1.334-1.037-2.165-2.612-2.203-4.306c-0.034-1.472,0.517-2.864,1.55-3.921   c0.865-0.885,1.979-1.45,3.201-1.634c0.728-2.05,1.558-3.664,2.572-5.017c3.311-4.381,8.621-6.995,14.209-6.995   c6.458,0,12.193,3.457,14.968,9.022c1.687,3.41,2.533,7.307,2.45,11.276c-0.015,0.731-0.054,1.49-0.119,2.297   C78.723,35.747,79.535,37.338,79.535,39.083z M76.135,39.083c0-0.827-0.495-1.572-1.292-1.946   c-0.654-0.307-1.043-0.995-0.969-1.713c0.116-1.125,0.183-2.134,0.202-3.086c0.071-3.425-0.653-6.777-2.097-9.694   c-2.227-4.465-6.685-7.134-11.923-7.134c-4.596,0-8.784,2.055-11.492,5.639c-0.957,1.275-1.73,2.912-2.432,5.147   c-0.238,0.76-0.97,1.254-1.766,1.185l-0.202-0.022c-0.678,0.014-1.232,0.236-1.659,0.673c-0.389,0.397-0.595,0.917-0.583,1.466   c0.02,0.859,0.58,1.65,1.429,2.015c0.758,0.327,1.172,1.151,0.981,1.954l-0.112,0.479c-1.317,5.44-4.346,11.541-8.304,16.727   c-0.21,0.273-0.427,0.541-0.644,0.808l-0.064,0.079c-0.532,0.654-1.461,0.819-2.188,0.39c-0.39-0.231-0.802-0.349-1.226-0.349   c-0.613,0-1.175,0.231-1.583,0.651c-0.385,0.397-0.587,0.923-0.57,1.48c0.019,0.591,0.291,1.048,0.517,1.328   c0.525,0.651,0.499,1.589-0.063,2.209c-3.234,3.569-6.379,7.494-6.226,12.756c0.195,6.745,4.989,12.764,11.149,14   c5.767,1.16,11.527-0.464,17.08-4.795c0.601-0.466,1.437-0.479,2.048-0.033c0.278,0.203,0.733,0.445,1.318,0.445   c0.586,0,1.132-0.226,1.538-0.637c0.402-0.407,0.62-0.949,0.613-1.526c-0.005-0.415-0.134-0.824-0.372-1.183   c-0.427-0.644-0.366-1.496,0.149-2.072c3.842-4.302,7.335-9.793,9.837-15.461c0.292-0.662,0.973-1.066,1.691-1.008   c0.075,0.006,0.148,0.015,0.223,0.025c0.007,0,0.014,0,0.02,0c0.61,0,1.174-0.234,1.595-0.656c0.408-0.409,0.632-0.948,0.63-1.519   c-0.002-0.677-0.334-1.308-0.911-1.73c-0.602-0.441-0.846-1.223-0.602-1.928c1.142-3.292,2.072-6.489,2.769-9.504   c0.162-0.703,0.75-1.227,1.467-1.307C75.266,41.104,76.135,40.179,76.135,39.083z"></path></g></svg>
